<?xml version="1.0" encoding="iso-8859-1"?>
<!-- Generator: Adobe Illustrator 19.0.0, SVG Export Plug-In . SVG Version: 6.00 Build 0)  -->
<svg version="1.1" id="Capa_1" xmlns="http://www.w3.org/2000/svg" xmlns:xlink="http://www.w3.org/1999/xlink" x="0px" y="0px"
	 viewBox="0 0 504.004 504.004" style="enable-background:new 0 0 504.004 504.004;" xml:space="preserve">
<g transform="translate(0 -1)">
	<g>
		<g>
			<path d="M319.332,227.897v-25.18c0-37.085-30.063-67.148-67.148-67.148c-37.085,0-67.148,30.063-67.148,67.148v25.18
				c-9.271,0-16.787,7.516-16.787,16.787v67.148c0.037,32.434,26.32,58.717,58.754,58.754h50.361
				c32.434-0.037,58.717-26.32,58.754-58.754v-67.148C336.119,235.413,328.603,227.897,319.332,227.897z M201.824,202.717
				c0-27.813,22.547-50.361,50.361-50.361s50.361,22.547,50.361,50.361v25.18H201.824V202.717z M319.332,261.471h-8.393
				c-4.636,0-8.393,3.758-8.393,8.393s3.758,8.393,8.393,8.393h8.393v16.787h-8.393c-4.636,0-8.393,3.758-8.393,8.393
				s3.758,8.393,8.393,8.393h8.393c-0.028,23.166-18.801,41.939-41.967,41.967h-50.361c-23.166-0.028-41.94-18.801-41.967-41.967
				h8.393c4.636,0,8.393-3.758,8.393-8.393s-3.758-8.393-8.393-8.393h-8.393v-16.787h8.393c4.636,0,8.393-3.758,8.393-8.393
				s-3.758-8.393-8.393-8.393h-8.393v-16.787h134.295V261.471z"/>
			<path d="M243.791,310.287v18.331c0,4.636,3.758,8.393,8.393,8.393s8.393-3.758,8.393-8.393v-18.331
				c11.554-4.07,18.488-15.879,16.412-27.952c-2.076-12.073-12.556-20.888-24.806-20.865c-12.25-0.023-22.73,8.792-24.806,20.865
				S232.237,306.218,243.791,310.287z M252.184,278.258c4.636,0,8.393,3.758,8.393,8.393c0,4.636-3.758,8.393-8.393,8.393
				s-8.393-3.758-8.393-8.393C243.791,282.016,247.549,278.258,252.184,278.258z"/>
			<path d="M498.69,225.206c-11.414-28.798-39.266-47.699-70.244-47.669c-11.121,0.002-22.103,2.47-32.155,7.227
				c-5.525-11.637-12.441-22.561-20.597-32.533c0.797,0,1.586,0.126,2.392,0.126c41.72,0,75.541-33.821,75.541-75.541
				c0.048-30.303-18.017-57.702-45.888-69.598c-27.871-11.895-60.153-5.985-82,15.014c-21.848,20.999-29.032,53.021-18.25,81.342
				c-35.671-13.295-74.938-13.295-110.609,0c14.302-37.704-3.531-79.993-40.513-96.07C119.385-8.574,76.296,7.231,58.481,43.408
				c-17.815,36.177-4.075,79.968,31.215,99.481c11.185,6.233,23.782,9.492,36.587,9.468c0.839,0,1.595-0.109,2.401-0.126
				c-8.16,9.97-15.079,20.895-20.606,32.533c-31.77-15.114-69.766-6.315-91.658,21.226c-21.892,27.541-21.892,66.543,0,94.084
				c21.892,27.541,59.889,36.34,91.658,21.226c5.526,11.675,12.458,22.631,20.639,32.625c-0.839,0-1.595-0.126-2.401-0.126
				c-34.424,0.016-64.484,23.303-73.101,56.631c-8.617,33.328,6.387,68.267,36.489,84.967c22.747,12.607,50.385,12.607,73.132,0
				c0.336-0.185,0.63-0.428,0.965-0.621c32.274-18.372,46.324-57.538,33.087-92.236c35.671,13.295,74.938,13.295,110.609,0
				c-13.375,35.087,1.117,74.667,33.985,92.823c23.39,12.956,51.886,12.583,74.928-0.983s37.196-38.301,37.216-65.04
				c-0.046-41.701-33.84-75.495-75.541-75.541c-0.839,0-1.603,0.109-2.409,0.134c8.178-10.005,15.111-20.966,20.648-32.642
				c28.019,13.213,61.266,7.964,83.853-13.237C502.765,286.853,510.105,254.005,498.69,225.206z M51.094,306.191
				c-0.177-0.909-0.295-1.829-0.353-2.753c0-13.907,11.274-25.18,25.18-25.18c8.661-0.018,16.703,4.489,21.21,11.885
				c1.142,4.996,2.56,9.925,4.247,14.764c0.042,0.134,0.076,0.285,0.126,0.428s0.109,0.285,0.159,0.42
				C85.703,313.376,67.185,313.536,51.094,306.191z M59.135,244.684c0-9.271,7.516-16.787,16.787-16.787
				c9.271,0,16.787,7.516,16.787,16.787c0,9.271-7.516,16.787-16.787,16.787C66.651,261.471,59.135,253.955,59.135,244.684z
				 M96.503,218.362c-5.848-4.666-13.099-7.222-20.581-7.252c-13.648-0.021-25.947,8.235-31.097,20.874
				c-5.15,12.64-2.123,27.139,7.654,36.663c-9.121,6.147-15.47,15.624-17.685,26.397c-11.276-11.052-17.628-26.178-17.626-41.967
				c-0.049-20.297,10.407-39.175,27.638-49.901c17.232-10.726,38.786-11.773,56.976-2.768
				C99.664,206.282,97.901,212.277,96.503,218.362z M402.914,129.954c-15.527,7.181-33.399,7.307-49.026,0.344l-0.68-0.562
				c-0.162-0.845-0.263-1.701-0.302-2.56c0-13.907,11.274-25.18,25.18-25.18c13.907,0,25.18,11.274,25.18,25.18
				C403.208,128.109,403.091,129.037,402.914,129.954z M361.299,68.422c0-9.271,7.516-16.787,16.787-16.787
				c9.271,0,16.787,7.516,16.787,16.787c0,9.271-7.516,16.787-16.787,16.787C368.815,85.209,361.299,77.693,361.299,68.422z
				 M324.115,53.497c9.296-21.533,30.517-35.466,53.971-35.436c23.875-0.003,45.377,14.44,54.403,36.543
				c9.025,22.103,3.778,47.469-13.275,64.178c-2.228-10.755-8.568-20.214-17.668-26.364c9.773-9.536,12.797-24.041,7.649-36.687
				c-5.148-12.647-17.442-20.916-31.096-20.916s-25.949,8.269-31.096,20.916c-5.148,12.647-2.124,27.151,7.649,36.687
				c-8.93,6.044-15.198,15.286-17.509,25.818c-0.613-0.386-1.175-0.772-1.805-1.158C319.232,100.03,314.819,75.03,324.115,53.497z
				 M85.155,118.783C73.879,107.73,67.526,92.604,67.529,76.815c-0.01-26.371,17.551-49.518,42.95-56.612
				c25.399-7.094,52.413,3.605,66.068,26.165c13.655,22.56,10.606,51.455-7.457,70.668c-0.63,0.386-1.2,0.772-1.813,1.167
				c-2.311-10.532-8.579-19.775-17.509-25.818c9.775-9.535,12.802-24.041,7.655-36.689c-5.147-12.648-17.442-20.919-31.098-20.919
				c-13.655,0-25.95,8.271-31.097,20.919c-5.147,12.648-2.121,27.154,7.655,36.689C93.745,98.524,87.38,108.002,85.155,118.783z
				 M143.07,68.422c0,9.271-7.516,16.787-16.787,16.787c-9.271,0-16.787-7.516-16.787-16.787c0-9.271,7.516-16.787,16.787-16.787
				C135.554,51.635,143.07,59.151,143.07,68.422z M101.455,129.954c-0.177-0.918-0.295-1.846-0.353-2.778
				c0-13.907,11.274-25.18,25.18-25.18c13.907,0,25.18,11.274,25.18,25.18c-0.041,0.845-0.142,1.687-0.302,2.518l-0.697,0.579
				C134.845,137.234,116.982,137.118,101.455,129.954z M151.11,482.454c-15.77,7.193-33.885,7.193-49.656,0
				c-0.177-0.909-0.295-1.829-0.353-2.753c0-13.907,11.274-25.18,25.18-25.18c13.907,0,25.18,11.274,25.18,25.18
				C151.405,480.625,151.287,481.544,151.11,482.454z M109.496,420.946c0-9.271,7.516-16.787,16.787-16.787
				c9.271,0,16.787,7.516,16.787,16.787s-7.516,16.787-16.787,16.787C117.011,437.733,109.496,430.218,109.496,420.946z
				 M167.411,471.307c-2.229-10.757-8.572-20.217-17.677-26.364c9.775-9.535,12.802-24.041,7.655-36.689
				c-5.147-12.648-17.442-20.919-31.098-20.919c-13.655,0-25.95,8.271-31.097,20.919s-2.121,27.154,7.655,36.689
				c-9.117,6.138-15.468,15.601-17.693,26.364c-17.053-16.709-22.3-42.075-13.275-64.178c9.025-22.103,30.528-36.547,54.403-36.543
				c8.387-0.025,16.678,1.786,24.291,5.305c5.831,4.83,12.002,9.234,18.466,13.178C191.039,412.329,190.314,448.936,167.411,471.307
				z M402.914,482.454c-15.771,7.195-33.887,7.192-49.656-0.008c-0.177-0.906-0.295-1.823-0.353-2.745
				c0-13.907,11.274-25.18,25.18-25.18c13.907,0,25.18,11.274,25.18,25.18C403.208,480.625,403.091,481.544,402.914,482.454z
				 M361.299,420.946c0-9.271,7.516-16.787,16.787-16.787c9.271,0,16.787,7.516,16.787,16.787s-7.516,16.787-16.787,16.787
				C368.815,437.733,361.299,430.218,361.299,420.946z M378.086,370.586c32.432,0.042,58.713,26.322,58.754,58.754
				c0.002,15.789-6.351,30.915-17.626,41.967c-2.228-10.755-8.568-20.214-17.668-26.364c9.773-9.536,12.797-24.041,7.649-36.687
				s-17.442-20.916-31.096-20.916s-25.949,8.269-31.096,20.916c-5.148,12.647-2.124,27.151,7.649,36.687
				c-9.117,6.138-15.468,15.601-17.693,26.364c-22.9-22.384-23.61-59-1.595-82.256c6.463-3.951,12.634-8.36,18.466-13.195
				C361.435,372.357,369.713,370.558,378.086,370.586z M391.28,284.813c-1.119,5.122-2.56,10.168-4.314,15.108
				c-0.092,0.256-0.171,0.516-0.235,0.781c-0.638,1.905-1.402,3.769-2.249,5.875c-15.622,38.677-47.387,68.582-86.936,81.844
				c-39.549,13.263-82.921,8.555-118.703-12.884l0.042-0.017c-26.707-16.032-47.456-40.338-59.098-69.229
				c-0.747-1.838-1.494-3.668-2.124-5.556c-0.067-0.285-0.151-0.565-0.252-0.839c-1.769-4.978-3.221-10.064-4.348-15.226
				c-2.397-10.359-3.594-20.96-3.567-31.593c0-2.518,0.084-5.036,0.159-7.353c0.804-15.83,4.262-31.413,10.232-46.097
				c8.743-21.603,22.638-40.739,40.473-55.741c1.2-1.049,2.518-2.098,3.869-3.173c4.656-3.667,9.543-7.031,14.63-10.072
				c45.138-27.05,101.504-27.05,146.642,0c5.134,3.055,10.063,6.442,14.756,10.139c1.276,0.974,2.518,2.023,3.886,3.189
				c30.147,25.427,48.448,62.18,50.57,101.561c0.076,2.518,0.159,5.036,0.159,7.554C394.896,263.765,393.691,274.41,391.28,284.813z
				 M453.274,306.191c-15.831,7.244-34.036,7.21-49.84-0.092c-0.067-0.671-0.084-1.46-0.109-2.258
				c1.54-4.499,2.849-9.074,3.92-13.706c4.506-7.392,12.545-11.895,21.202-11.877c13.907,0,25.18,11.274,25.18,25.18
				C453.569,304.363,453.451,305.282,453.274,306.191z M411.66,244.684c0-9.271,7.516-16.787,16.787-16.787
				c9.271,0,16.787,7.516,16.787,16.787c0,9.271-7.516,16.787-16.787,16.787C419.175,261.471,411.66,253.955,411.66,244.684z
				 M469.574,295.045c-2.228-10.755-8.568-20.214-17.668-26.364c12.808-12.403,13.644-32.67,1.899-46.084
				s-31.944-15.266-45.931-4.209c-1.401-6.084-3.164-12.079-5.279-17.954c25.874-12.742,57.172-4.798,73.837,18.742
				C493.096,242.716,490.19,274.875,469.574,295.045z"/>
		</g>
	</g>
</g>
<g>
</g>
<g>
</g>
<g>
</g>
<g>
</g>
<g>
</g>
<g>
</g>
<g>
</g>
<g>
</g>
<g>
</g>
<g>
</g>
<g>
</g>
<g>
</g>
<g>
</g>
<g>
</g>
<g>
</g>
</svg>
